<svg viewBox="0 0 1.1200 0.4846" preserveAspectRatio="xMidYMid meet" fill="currentColor" focusable="false" aria-hidden="true"><path d="M1.0818 0.0121 L1.0815 0.0107 L1.0801 0.0100 L1.0283 0.0100 L1.0268 0.0106 L0.8613 0.1850 L0.6178 0.1825 L0.7566 0.0631 L0.7571 0.0615 L0.7556 0.0604 L0.7062 0.0551 L0.7049 0.0554 L0.4895 0.1771 L0.1483 0.1798 L0.1479 0.1798 L0.0796 0.1930 L0.0788 0.1934 L0.0623 0.2067 L0.0107 0.2410 L0.0100 0.2423 L0.0100 0.2556 L0.0106 0.2569 L0.0294 0.2701 L0.0679 0.2864 L0.1248 0.2970 L0.3388 0.2996 L0.6956 0.4718 L0.6963 0.4720 L0.7245 0.4746 L0.7249 0.4746 L0.7556 0.4720 L0.7571 0.4709 L0.7566 0.4691 L0.6018 0.3559 L0.5900 0.3198 L0.5933 0.3102 L0.7391 0.2916 L0.8310 0.2757 L0.9545 0.2438 L1.0486 0.2836 L1.0496 0.2837 L1.1084 0.2811 L1.1100 0.2800 L1.1095 0.2783 L1.0386 0.2225 L1.0551 0.2145 L1.0560 0.2130 L1.0537 0.1944 L1.0523 0.1930 L1.0323 0.1900 L1.0864 0.1025 L1.0864 0.1011 L1.0851 0.1003 L1.0559 0.0969 L1.0818 0.0121 Z M0.1500 0.3620 L0.1500 0.2820 L0.4700 0.2820 L0.4700 0.3620 L0.1500 0.3620 Z M0.5100 0.3620 L0.5100 0.2820 L0.8300 0.2820 L0.8300 0.3620 L0.5100 0.3620 Z"/></svg>
